<svg viewBox="0 0 512 512" xmlns="http://www.w3.org/2000/svg" xmlns:xlink="http://www.w3.org/1999/xlink"><linearGradient id="linear-gradient" gradientUnits="userSpaceOnUse" x1="33.119" x2="494.776" y1="253.459" y2="253.459"><stop offset="0" stop-color="#ff5722"/><stop offset=".2144" stop-color="#fb4c20"/><stop offset=".5967" stop-color="#f02d1a"/><stop offset="1" stop-color="#e30613"/></linearGradient><radialGradient id="radial-gradient" cx="273.421" cy="323.459" gradientTransform="matrix(.765 -.644 .489 .58 -93.757 311.869)" gradientUnits="userSpaceOnUse" r="270.534"><stop offset="0"/><stop offset="1" stop-color="#fff" stop-opacity="0"/></radialGradient><radialGradient id="radial-gradient-2" cx="219.554" cy="147.999" fx="270.328" fy="296.175" gradientUnits="userSpaceOnUse" r="219.386"><stop offset="0" stop-color="#fff"/><stop offset=".0736" stop-color="#fff" stop-opacity=".824"/><stop offset=".1652" stop-color="#fff" stop-opacity=".633"/><stop offset=".262" stop-color="#fff" stop-opacity=".463"/><stop offset=".362" stop-color="#fff" stop-opacity=".32"/><stop offset=".4663" stop-color="#fff" stop-opacity=".203"/><stop offset=".5761" stop-color="#fff" stop-opacity=".113"/><stop offset=".6941" stop-color="#fff" stop-opacity=".05"/><stop offset=".8259" stop-color="#fff" stop-opacity=".012"/><stop offset="1" stop-color="#fff" stop-opacity="0"/></radialGradient><g isolation="isolate"><g id="Layer_1" data-name="Layer 1"><circle cx="263.948" cy="253.459" fill="url(#linear-gradient)" r="230.829"/><path d="m382.068 219.6651a34.0961 34.0961 0 0 0 -24.2972 10.1776c-22.7975-15.81-53.5942-26.0863-87.79-27.1732l17.6979-80.1366 56.4935 12.7471a25.24 25.24 0 0 0 25.0978 25.1968 25.4945 25.4945 0 1 0 -22.5978-36.8568l-62.393-13.8336c-3.1-.7905-6.2 1.3832-7.1 4.5452l-19.4979 88.4365c-33.8962 1.3836-64.3924 11.66-87.29 27.47a33.8587 33.8587 0 0 0 -24.5969-10.474c-35.5966 0-47.2948 47.9234-14.6988 64.3266a69.3082 69.3082 0 0 0 -1.7 15.9083c0 53.8526 60.4932 97.4286 134.7851 97.4286 74.5917 0 135.0849-43.576 135.0849-97.4286a61.325 61.325 0 0 0 -2-16.106c31.9974-16.6005 20.2985-64.2279-15.1976-64.2279zm-198.833 67.7333a25.0029 25.0029 0 1 1 25.151 24.856 25.0724 25.0724 0 0 1 -25.151-24.856zm137.0776 60.0307c-11.6616 11.7226-33.9715 17.5758-56.2814 17.5629-22.31.0129-44.62-5.84-56.2814-17.5629a6.1146 6.1146 0 1 1 8.4983-8.794c9.258 9.2464 28.547 13.8133 47.7831 13.8177 19.2361-.0044 38.5251-4.5713 47.7817-13.8177a6.1151 6.1151 0 0 1 8.5 8.794zm-.6362-35.174a25.0029 25.0029 0 1 1 25.151-24.8563 24.8845 24.8845 0 0 1 -25.151 24.8563z" fill="#fff"/><path d="m476.2084 162.63a230.5153 230.5153 0 0 1 2.6011 34.522c0 129.4458-107.6157 234.3828-240.3662 234.3828-75.187 0-142.3008-33.67-186.3769-86.3813 35.4755 81.86 116.9838 139.1333 211.8813 139.1333 127.4829 0 230.8286-103.3452 230.8286-230.8286a230.0645 230.0645 0 0 0 -18.5679-90.8282z" fill="url(#radial-gradient)" mix-blend-mode="multiply"/><path d="m48.042 218.1942c21.96 56.25 116.2212 71.9993 210.5376 35.1772s158.5388-114.7753 131.0114-168.5214c-16.263-31.7537-69.4149-60.3147-132.1229-62.1182h-.3424c-100.9337 2.93-185.6031 70.6641-213.8983 163.0382a77.3991 77.3991 0 0 0 4.8146 32.4242z" fill="url(#radial-gradient-2)"/></g></g></svg>